<svg
    version="1.1"
    id="Layer_1"
    xmlns="http://www.w3.org/2000/svg"
    x="0px"
    y="0px"
    viewBox="0 0 331 326.8"
    style="enable-background:new 0 0 331 326.8;"
    xmlns:xlink="http://www.w3.org/1999/xlink"
    xml:space="preserve"
    class="icon-svg"
>
<style type="text/css">
  .st0 {
    fill: #4b4846;
  }
  .st1 {
    fill: #4e585b;
  }
  .st2 {
    fill: #787e80;
  }
  .st3 {
    fill: url(#SVGID_1_);
  }
  .st4 {
    fill: url(#SVGID_00000109001872175145262590000004681253817238050944_);
  }
  .st5 {
    fill: #ffffff;
  }
  .st6 {
    fill: #acabab;
  }
</style>
<path
  class="st0"
  d="M324,303c0,11-12.9,23.8-23.8,23.8H22.8C11.9,326.8,0,314.9,0,304V27C0,11.6,14.8,0.6,27.2,0.6l273-0.6
c11,0,23.8,12.9,23.8,23.8V303z"
></path>
<path
  class="st1"
  d="M308.7,272.8c0,17.2-14,31.2-31.2,31.2H54.3c-17.2,0-31.2-14-31.2-31.2V52.6c0-17.2,14-31.2,31.2-31.2h223.3
c17.2,0,31.2,14,31.2,31.2V272.8z"
></path>
<path
  class="st2"
  d="M308.7,128.8c-6.7,9.8-97.9,18.5-115.1,18.5h-67c-17.2,0-84-2.7-103.6-16.4V52.6c0-17.2,14-31.2,31.2-31.2
h223.3c17.2,0,31.2,14,31.2,31.2V128.8z"
></path>
<linearGradient
  id="SVGID_1_"
  gradientUnits="userSpaceOnUse"
  x1="169.019"
  y1="326.7988"
  x2="169.019"
  y2="-9.094947e-13"
>
  <stop offset="0" style="stop-color:#5C5B5A"></stop>
  <stop offset="7.019290e-02" style="stop-color:#D3D0D1"></stop>
  <stop offset="0.1569" style="stop-color:#FFFFFF"></stop>
  <stop offset="0.329" style="stop-color:#FFFFFF"></stop>
  <stop offset="0.4049" style="stop-color:#CECBCC"></stop>
  <stop offset="0.5021" style="stop-color:#999A9B"></stop>
  <stop offset="0.6568" style="stop-color:#FFFFFF"></stop>
  <stop offset="0.81" style="stop-color:#999A9B"></stop>
  <stop offset="1" style="stop-color:#CECBCC"></stop>
</linearGradient>
<path
  class="st3"
  d="M307.2,0h-273C13.4,0,7,8.3,7,23.7V304c0,11,11.9,22.8,22.8,22.8h277.3c11,0,23.8-12.9,23.8-23.8V23.8
C331,12.9,318.1,0,307.2,0z M314.5,278.4c0,17.2-14,31.2-31.2,31.2H48.9c-17.2,0-31.2-14-31.2-31.2V48c0-17.2,15.2-32.1,32.4-32.1
h233.2c17.2,0,31.2,14,31.2,31.2V278.4z"
></path>
<linearGradient
  id="SVGID_00000178903400516646930450000004096785576496296872_"
  gradientUnits="userSpaceOnUse"
  x1="166.1234"
  y1="15.8965"
  x2="166.1234"
  y2="309.5488"
>
  <stop offset="0" style="stop-color:#5C5B5A"></stop>
  <stop offset="0.1698" style="stop-color:#FFFFFF"></stop>
  <stop offset="0.396" style="stop-color:#D3D0D1"></stop>
  <stop offset="0.5443" style="stop-color:#FFFFFF"></stop>
  <stop offset="0.6825" style="stop-color:#CECBCC"></stop>
  <stop offset="0.8363" style="stop-color:#5C5B5A"></stop>
  <stop offset="1" style="stop-color:#8C8C8C"></stop>
</linearGradient>
<path
  style="fill:url(#SVGID_00000178903400516646930450000004096785576496296872_);"
  d="M283.4,15.9H50.1
c-17.2,0-32.4,14.9-32.4,32.1v230.4c0,17.2,14,31.2,31.2,31.2h234.5c17.2,0,31.2-14,31.2-31.2V47.1
C314.5,29.9,300.6,15.9,283.4,15.9z M308.7,272.8c0,17.2-14,31.2-31.2,31.2H54.2c-17.2,0-31.2-14-31.2-31.2V52.6
c0-17.2,14-31.2,31.2-31.2h223.3c17.2,0,31.2,14,31.2,31.2V272.8z"
></path>
<g>
  <path
    class="st5"
    d="M126.5,214.7c1.1-0.7,2.4-1.2,4-1.2c3.5,0,4.9,1.8,4.9,5.3v5.3c0,1.5,0,2.1,0.1,2.5h-2.1V225h0
c-0.5,0.8-1.5,2-3.5,2c-2.6,0-4-1.2-4-4c0-3.2,3.1-4.2,5.4-4.2c0.9,0,1.1,0,2,0.1c0-2.2-0.8-3.3-3-3.3c-1.3,0-2.6,0.5-3.5,1.3
L126.5,214.7z M133.2,220.5c-0.5,0-1-0.1-1.4-0.1c-1.2,0-4.2,0.2-4.2,2.5c0,1.4,1.2,2.1,2.3,2.1c2.2,0,3.4-1.5,3.4-3.4V220.5z"
  ></path>
</g>
<g>
  <path
    class="st5"
    d="M210.1,214.8c1.1-0.7,2.4-1.2,4-1.2c3.5,0,4.9,1.8,4.9,5.3v5.3c0,1.5,0,2.1,0.1,2.5H217V225h0
c-0.5,0.8-1.5,2-3.5,2c-2.6,0-4-1.2-4-4c0-3.2,3.1-4.2,5.4-4.2c0.9,0,1.1,0,2,0.1c0-2.2-0.8-3.3-3-3.3c-1.3,0-2.6,0.5-3.5,1.3
L210.1,214.8z M216.8,220.5c-0.5,0-1-0.1-1.4-0.1c-1.2,0-4.2,0.2-4.2,2.5c0,1.4,1.2,2.1,2.3,2.1c2.2,0,3.4-1.5,3.4-3.4V220.5z"
  ></path>
</g>
<g>
  <path
    class="st5"
    d="M272.6,214.8c1.1-0.7,2.4-1.2,4-1.2c3.5,0,4.9,1.8,4.9,5.3v5.3c0,1.5,0,2.1,0.1,2.5h-2.1V225h0
c-0.5,0.8-1.5,2-3.5,2c-2.6,0-4-1.2-4-4c0-3.2,3.1-4.2,5.4-4.2c0.9,0,1.1,0,2,0.1c0-2.2-0.8-3.3-3-3.3c-1.3,0-2.6,0.5-3.5,1.3
L272.6,214.8z M279.3,220.5c-0.5,0-1-0.1-1.4-0.1c-1.2,0-4.2,0.2-4.2,2.5c0,1.4,1.2,2.1,2.3,2.1c2.2,0,3.4-1.5,3.4-3.4V220.5z"
  ></path>
</g>
<path
  class="st5"
  d="M51.6,109.8h34.9c9.5,0,17.5,2.7,21.6,8.2c2.4,3.2,3.5,7,3.5,11.2c0,4.9-3.1,9.8-6,12.9
c-1.5,1.7-4.9,3.2-7.7,4.6c4.1,1.5,7.2,3.3,9.3,5.2c3.6,3.4,7.1,7.4,7.1,13.4c0,5.1-1.6,9.6-4.9,13.7c-4.9,6.1-12.7,9.2-23.4,9.2
H51.6V109.8z M82.4,143c4.7,0,8.3-0.6,10.9-1.9c4.1-2,7-5.5,7-10.6c0-5.1-3.1-9.2-7.4-11c-2.4-1-6.1-1.5-10.9-1.5H62.3V143H82.4z
M86.1,179.8c6.8,0,11.6-2.6,14.5-6.4c1.8-2.4,2.7-5.3,2.7-8.6c0-5.7-2.6-9.6-7.9-11.6c-2.8-1.1-6.5-2.6-11.1-2.6H62.3v29.2H86.1z"
></path>
<path
  class="st5"
  d="M136.7,131.4v36.1c0,3,0.5,5.5,1.4,7.4c1.7,3.5,4.9,5.3,9.6,5.3c6.7,0,16-4.8,16-8.1c0-4.5-0.1-9-0.1-14.7
v-25.9h10.6v56.4h-10l0.1-9.3c-1.3,2.2-3.1,4.1-5,5.7c-3.7,3.1-8.2,4.6-13.5,4.6c-8.2,0-13.8-2.8-16.8-8.4c-1.6-3-2.4-7-2.4-12v-37
H136.7z"
></path>
<path
  class="st5"
  d="M193.9,130.6h9.4v10.2c0.8-2,3.7-4.4,6.7-7.2c3-2.8,6.5-4.3,10.4-4.3c0.2,0,0.5,0,0.9,0.1
c0.4,0,1.2,0.1,2.3,0.2V140c-0.6-0.1-1.1-0.2-1.6-0.2c-0.5,0-1-0.1-1.6-0.1c-5,0-8.8,1.6-11.5,4.8c-2.7,3.2-4.1,6.9-4.1,11.1v32.6
h-10.8V130.6z"
></path>
<path
  class="st5"
  d="M275.7,135.9c-5.5-4.9-12.2-7.4-20.1-7.4c-8.9,0-15.9,2.8-21.2,8.5c-5.3,5.7-7.9,13.3-7.9,22.9
c0,9,2.5,16.1,7.5,21.4c5,5.3,11.7,8,20.2,8c10.2,0,17.7-3,22.5-9c4.8-6,7.2-13.6,7.2-22.8C283.9,148,281.2,140.8,275.7,135.9z
M269.2,173.9c-2.5,4.8-7.2,7.2-14.1,7.2c-6.2,0-10.8-2-13.6-6.1c-2.9-4.1-4.3-9.1-4.3-15.2c0-6.3,1.4-11.7,4.3-16.2
c2.9-4.5,7.4-6.7,13.7-6.7c7.1,0,12.1,2.6,15,7.9c1.8,3.3,2.7,7.7,2.7,13C273,163.7,271.8,169.1,269.2,173.9z"
></path>
<polygon class="st5" points="271,105.2 254.1,124 246.5,124 258.8,105.2 "></polygon>
<path
  class="st5"
  d="M45.1,209.4c2.5,0,4.4,0.7,5.7,2.1c1.3,1.4,2,3.5,2,6.3c0,1.5-0.2,2.8-0.5,3.9c-0.3,1.1-0.8,2.1-1.4,2.9
c-0.6,0.8-1.4,1.4-2.4,1.8c-1,0.4-2.1,0.6-3.5,0.6h-5.5v-17.5H45.1z M45.3,225c0.2,0,0.5,0,0.9-0.1c0.4,0,0.7-0.1,1.2-0.3
c0.4-0.2,0.8-0.4,1.2-0.7c0.4-0.3,0.8-0.7,1.1-1.2c0.3-0.5,0.6-1.1,0.8-1.9c0.2-0.8,0.3-1.7,0.3-2.8c0-1-0.1-2-0.3-2.8
c-0.2-0.8-0.5-1.5-0.9-2.1c-0.4-0.6-1-1-1.7-1.3c-0.7-0.3-1.5-0.5-2.5-0.5h-3.6V225H45.3z"
></path>
<path
  class="st5"
  d="M53.3,220.4c0-3.7,2.4-6.4,5.7-6.4c3.1,0,4.9,2.2,4.9,5.6c0,0.3,0,0.6-0.1,0.9h-8.2c0.1,2.5,1.1,4.6,3.7,4.6
c1.7,0,2.8-0.7,3.4-1.1l0.8,1.6c-0.7,0.4-2,1.3-4.3,1.3C55.4,226.9,53.3,224.1,53.3,220.4z M61.8,218.9c-0.1-1.7-0.8-3.2-2.8-3.2
c-1.9,0-2.9,1.3-3.2,3.2H61.8z"
></path>
<path
  class="st5"
  d="M149,220.4c0-3.7,2.4-6.4,5.7-6.4c3.1,0,4.9,2.2,4.9,5.6c0,0.3,0,0.6-0.1,0.9h-8.2c0.1,2.5,1.1,4.6,3.7,4.6
c1.7,0,2.8-0.7,3.4-1.1l0.8,1.6c-0.7,0.4-2,1.3-4.3,1.3C151.1,226.9,149,224.1,149,220.4z M157.5,218.9c-0.1-1.7-0.8-3.2-2.8-3.2
c-1.9,0-2.9,1.3-3.2,3.2H157.5z"
></path>
<path
  class="st5"
  d="M251.8,220.4c0-3.7,2.4-6.4,5.7-6.4c3.1,0,4.9,2.2,4.9,5.6c0,0.3,0,0.6-0.1,0.9h-8.2c0.1,2.5,1.1,4.6,3.7,4.6
c1.7,0,2.8-0.7,3.4-1.1l0.8,1.6c-0.7,0.4-2,1.3-4.3,1.3C253.8,226.9,251.8,224.1,251.8,220.4z M260.2,218.9
c-0.1-1.7-0.8-3.2-2.8-3.2c-1.9,0-2.9,1.3-3.2,3.2H260.2z"
></path>
<path class="st5" d="M73.4,209.3h9.2v2h-7v5.4h6.5v2h-6.5v6.3h7.4v1.8h-9.6V209.3z"></path>
<path
  class="st5"
  d="M85.3,214.2h2.3v1.8c1.1-1.3,2.6-2.1,4.2-2.1c2.8,0,3.8,1.8,3.8,4v9h-2.3v-8.5c0-1.5-0.5-2.5-2.2-2.5
c-1.4,0-2.7,1-3.6,2.2v8.8h-2.3V214.2z"
></path>
<path
  class="st5"
  d="M196.7,214.2h2.3v1.8c1.1-1.3,2.6-2.1,4.2-2.1c2.8,0,3.8,1.8,3.8,4v9h-2.3v-8.5c0-1.5-0.5-2.5-2.2-2.5
c-1.4,0-2.7,1-3.6,2.2v8.8h-2.3V214.2z"
></path>
<path
  class="st5"
  d="M222.2,214.2h2.3v1.8c1.1-1.3,2.6-2.1,4.2-2.1c2.8,0,3.8,1.8,3.8,4v9h-2.3v-8.5c0-1.5-0.5-2.5-2.2-2.5
c-1.4,0-2.7,1-3.6,2.2v8.8h-2.3V214.2z"
></path>
<path
  class="st5"
  d="M104.6,214.2v1.8h-3.3v7.9c0,0.2,0,0.4,0.1,0.6c0,0.1,0.1,0.3,0.2,0.3c0.1,0.1,0.3,0.1,0.4,0.2
c0.2,0,0.4,0,0.7,0h1.8v1.8h-2.4c-0.5,0-0.9,0-1.3-0.1c-0.4-0.1-0.6-0.2-0.9-0.4c-0.2-0.2-0.4-0.5-0.5-0.8c-0.1-0.4-0.2-0.8-0.2-1.4
V216h-2v-1.8h2v-5h1.9v5H104.6z"
></path>
<path
  class="st5"
  d="M106.6,210.3c0-0.8,0.6-1.5,1.5-1.5c0.8,0,1.5,0.7,1.5,1.5c0,0.8-0.6,1.5-1.5,1.5
C107.3,211.8,106.6,211.1,106.6,210.3z M107,214h2.1v12.8H107V214z"
></path>
<path
  class="st5"
  d="M190.7,210.3c0-0.8,0.6-1.5,1.5-1.5c0.8,0,1.5,0.7,1.5,1.5c0,0.8-0.6,1.5-1.5,1.5
C191.3,211.8,190.7,211.1,190.7,210.3z M191.1,214h2.1v12.8h-2.1V214z"
></path>
<path
  class="st5"
  d="M246.5,210.3c0-0.8,0.6-1.5,1.5-1.5c0.8,0,1.5,0.7,1.5,1.5c0,0.8-0.6,1.5-1.5,1.5
C247.2,211.8,246.5,211.1,246.5,210.3z M246.9,214h2.1v12.8h-2.1V214z"
></path>
<path
  class="st5"
  d="M121.3,226.7V225h0c-0.3,0.7-0.8,1.2-1.5,1.5c-0.7,0.3-1.4,0.5-2.2,0.5c-0.9,0-1.7-0.2-2.4-0.5
c-0.7-0.4-1.2-0.8-1.7-1.4c-0.4-0.6-0.8-1.3-1-2.1c-0.2-0.8-0.3-1.7-0.3-2.6s0.1-1.8,0.3-2.6c0.2-0.8,0.5-1.5,1-2.1
c0.4-0.6,1-1.1,1.7-1.4c0.7-0.4,1.4-0.5,2.3-0.5c0.3,0,0.6,0,1,0.1c0.3,0.1,0.7,0.2,1,0.3c0.3,0.2,0.7,0.4,1,0.6
c0.3,0.3,0.6,0.6,0.8,0.9h0v-7.6h1.9v18.6H121.3z M114.4,222.2c0.1,0.6,0.4,1.1,0.7,1.5c0.3,0.4,0.7,0.8,1.1,1.1
c0.5,0.3,1,0.4,1.6,0.4c0.6,0,1.2-0.1,1.6-0.4c0.5-0.3,0.8-0.6,1.1-1.1c0.3-0.5,0.5-1,0.6-1.5c0.1-0.6,0.2-1.2,0.2-1.7
c0-0.6-0.1-1.2-0.2-1.8c-0.1-0.6-0.4-1.1-0.6-1.5c-0.3-0.4-0.7-0.8-1.1-1.1c-0.5-0.3-1-0.4-1.7-0.4c-0.6,0-1.2,0.1-1.6,0.4
c-0.5,0.3-0.8,0.6-1.1,1.1c-0.3,0.5-0.5,1-0.6,1.6c-0.1,0.6-0.2,1.2-0.2,1.8C114.2,221,114.2,221.6,114.4,222.2z"
></path>
<path
  class="st5"
  d="M145.6,226.7V225h0c-0.3,0.7-0.8,1.2-1.5,1.5c-0.7,0.3-1.4,0.5-2.2,0.5c-0.9,0-1.7-0.2-2.4-0.5
c-0.7-0.4-1.2-0.8-1.7-1.4c-0.4-0.6-0.8-1.3-1-2.1c-0.2-0.8-0.3-1.7-0.3-2.6s0.1-1.8,0.3-2.6c0.2-0.8,0.5-1.5,1-2.1
c0.4-0.6,1-1.1,1.7-1.4c0.7-0.4,1.4-0.5,2.3-0.5c0.3,0,0.6,0,1,0.1c0.3,0.1,0.7,0.2,1,0.3c0.3,0.2,0.7,0.4,1,0.6
c0.3,0.3,0.6,0.6,0.8,0.9h0v-7.6h1.9v18.6H145.6z M138.7,222.2c0.1,0.6,0.4,1.1,0.7,1.5c0.3,0.4,0.7,0.8,1.1,1.1
c0.5,0.3,1,0.4,1.6,0.4c0.6,0,1.2-0.1,1.6-0.4c0.5-0.3,0.8-0.6,1.1-1.1c0.3-0.5,0.5-1,0.6-1.5c0.1-0.6,0.2-1.2,0.2-1.7
c0-0.6-0.1-1.2-0.2-1.8c-0.1-0.6-0.4-1.1-0.6-1.5c-0.3-0.4-0.7-0.8-1.1-1.1c-0.5-0.3-1-0.4-1.7-0.4c-0.6,0-1.2,0.1-1.6,0.4
c-0.5,0.3-0.8,0.6-1.1,1.1c-0.3,0.5-0.5,1-0.6,1.6c-0.1,0.6-0.2,1.2-0.2,1.8C138.5,221,138.6,221.6,138.7,222.2z"
></path>
<path
  class="st5"
  d="M160.8,225.8l0.9-1.6c0.4,0.3,1.5,1,3,1c1.4,0,2.3-0.6,2.3-1.6c0-1.1-1-1.5-2.7-2.3c-1.8-0.8-3.2-1.7-3.2-3.8
c0-2,1.5-3.5,3.9-3.5c2,0,3.2,0.8,3.6,1.1l-0.9,1.6c-0.4-0.3-1.3-0.9-2.6-0.9c-1.3,0-1.9,0.6-1.9,1.6c0,1.1,1,1.5,2.3,2.1
c1.9,0.8,3.6,1.7,3.6,3.8c0,2.3-1.7,3.7-4.4,3.7C162.9,226.9,161.5,226.3,160.8,225.8z"
></path>
<path
  class="st5"
  d="M283.9,225.8l0.9-1.6c0.4,0.3,1.5,1,3,1c1.4,0,2.3-0.6,2.3-1.6c0-1.1-1-1.5-2.7-2.3c-1.8-0.8-3.2-1.7-3.2-3.8
c0-2,1.5-3.5,3.9-3.5c2,0,3.2,0.8,3.6,1.1l-0.9,1.6c-0.4-0.3-1.3-0.9-2.6-0.9c-1.3,0-1.9,0.6-1.9,1.6c0,1.1,1,1.5,2.3,2.1
c1.9,0.8,3.6,1.7,3.6,3.8c0,2.3-1.7,3.7-4.4,3.7C285.9,226.9,284.6,226.3,283.9,225.8z"
></path>
<path class="st5" d="M179.7,209h8.8v2H182v5.9h6.3v2H182v7.9h-2.3V209z"></path>
<path
  class="st5"
  d="M241.7,215.8c-0.5-0.5-1.1-0.7-1.9-0.7c-0.7,0-1.3,0.1-1.7,0.4c-0.5,0.3-0.8,0.7-1.1,1.1
c-0.3,0.5-0.5,1-0.6,1.6c-0.1,0.6-0.2,1.3-0.2,1.9c0,0.6,0.1,1.2,0.2,1.8c0.1,0.6,0.3,1.1,0.6,1.5c0.3,0.4,0.6,0.8,1.1,1.1
c0.4,0.3,1,0.4,1.6,0.4c0.9,0,1.7-0.3,2.2-0.8c0.5-0.6,0.9-1.3,1-2.4h2c-0.2,1.6-0.7,2.9-1.6,3.8c-0.9,0.9-2,1.3-3.5,1.3
c-0.9,0-1.7-0.2-2.4-0.5c-0.7-0.3-1.3-0.8-1.7-1.4c-0.5-0.6-0.8-1.3-1-2.1c-0.2-0.8-0.3-1.7-0.3-2.7c0-1,0.1-1.9,0.3-2.8
c0.2-0.9,0.6-1.6,1-2.2c0.5-0.6,1-1.1,1.7-1.5c0.7-0.4,1.5-0.5,2.4-0.5c0.7,0,1.3,0.1,1.9,0.3c0.6,0.2,1.1,0.5,1.5,0.8
c0.4,0.4,0.8,0.8,1.1,1.4c0.3,0.6,0.5,1.2,0.5,2h-2C242.5,216.9,242.2,216.3,241.7,215.8z"
></path>
<path
  class="st5"
  d="M265.1,214h1.9v2.2c0.2-0.4,0.5-0.9,1.2-1.6c0.6-0.6,1.3-0.9,2.1-0.9c0,0,0.1,0,0.2,0c0.1,0,0.2,0,0.5,0v2.3
c-0.1,0-0.2,0-0.3,0c-0.1,0-0.2,0-0.3,0c-1,0-1.8,0.3-2.3,1c-0.5,0.7-0.8,1.5-0.8,2.4v7.3h-2V214z"
></path>
<rect x="36.1" y="229.9" class="st6" width="263.4" height="2.9"></rect>
</svg>