<svg width="250" height="250" viewBox="0 0 250 250" fill="none" xmlns="http://www.w3.org/2000/svg">
<g clip-path="url(#clip0_157_36)">
<rect width="250" height="250" fill="white"/>
<path d="M110.968 110.741C110.968 110.741 114.692 105.341 111.898 97.1518C109.103 88.9628 105.379 81.698 110.968 81.5143C116.557 81.3306 112.939 89.8925 112.939 89.8925C112.939 89.8925 119.162 84.6763 115.065 79.2819C110.968 73.882 101.849 78.9089 104.455 86.5412C107.06 94.1735 111.53 101.806 110.973 110.741H110.968Z" fill="url(#paint0_linear_157_36)"/>
<path d="M108.547 109.065C108.547 109.065 103.909 97.0235 98.6819 90.076C91.6286 80.7013 82.8551 72.7629 90.8659 69.0386C97.5685 65.6873 99.0549 79.6491 99.0549 79.6491C99.0549 79.6491 103.709 67.1737 93.4713 63.2657C85.093 60.0981 78.0175 72.9466 86.0227 80.5788C92.909 87.4651 91.7956 87.0921 93.655 88.9571C95.5143 90.8164 103.152 101.243 108.547 109.065Z" fill="url(#paint1_linear_157_36)"/>
<path d="M115.439 123.956C116.463 119.286 112.21 112.806 100.358 107.016C82.9833 98.5267 75.4123 94.1734 68.3367 86.3518C61.2611 78.5303 61.4504 67.5467 65.3584 64.5684C69.2664 61.5901 77.6446 62.7091 80.4392 75.925C80.4392 75.925 82.6715 60.6493 70.0123 57.3982C57.3531 54.1416 52.5099 71.644 59.0288 81.3249C65.5477 91.0058 77.8951 100.72 89.3741 105.341C102.779 110.741 111.603 115.556 115.439 123.956Z" fill="url(#paint2_linear_157_36)"/>
<path d="M115.438 125.41C115.438 125.41 96.7834 110.518 92.0738 108.492C87.6036 106.566 77.9282 106.85 77.9282 115C77.9282 122.693 87.9988 126.596 93.6604 122.014C93.6604 122.014 87.4365 123.94 83.7568 119.921C80.0771 115.902 84.0964 109.678 89.8693 111.376C95.6422 113.074 110.795 125.237 115.438 125.41Z" fill="url(#paint3_linear_157_36)"/>
<path d="M126.917 122.348C126.917 122.348 151.69 114.415 173.262 132.925C194.834 151.435 193.442 169.249 177.716 171.337C161.989 173.424 163.659 150.321 159.067 143.502C155.053 137.54 147.71 124.491 126.917 122.348Z" fill="url(#paint4_linear_157_36)"/>
<path d="M148.489 150.321C148.489 150.321 149.742 142.667 145.984 138.352C142.226 134.038 134.293 130.28 133.458 136.126C132.623 141.971 137.912 140.023 142.087 141.72C145.995 143.313 147.515 144.337 148.489 150.321Z" fill="url(#paint5_linear_157_36)"/>
<path d="M193.213 189.885C191.131 190.325 176.936 197.495 158.453 186.367C145.082 178.317 132.89 161.372 147.704 156.044C159.756 151.713 158.537 165.33 165.323 175.929C171.68 185.849 176.874 188.316 193.208 189.885H193.213Z" fill="url(#paint6_linear_157_36)"/>
<path d="M143.062 177.182C143.062 177.182 133.993 165.836 139.933 156.862C143.062 152.13 141.536 145.728 136.804 145.172C132.073 144.615 128.315 151.852 130.124 161.177C131.933 170.501 140.701 176.764 143.067 177.182H143.062Z" fill="url(#paint7_linear_157_36)"/>
<path d="M184.446 94.101C184.891 92.9876 185.314 91.8464 185.715 90.6718L180.9 92.0134L186.01 89.7922C186.45 88.445 186.857 87.0589 187.218 85.6393L178.668 88.6788L187.608 84.0304C187.892 82.8002 188.142 81.5365 188.36 80.2505L177.014 85.3665L188.705 78.007C188.861 76.8547 188.989 75.68 189.083 74.4887L175.895 82.0264L189.256 71.7108C189.312 70.4304 189.323 69.1278 189.306 67.8084L174.225 78.6862L189.167 64.3959C189.106 63.4439 189.022 62.4753 188.922 61.5011L170.328 77.0161L188.154 57.4038C186.706 57.465 185.287 57.5374 183.9 57.6265L167.845 75.0621L179.709 57.9438C178.395 58.0607 177.109 58.1887 175.851 58.3279L166.782 71.2209L173.251 58.6452C171.648 58.8512 170.094 59.085 168.586 59.3355L163.308 69.4284L166.81 59.6417C165.446 59.8867 164.116 60.1483 162.824 60.4267L160.247 67.4633L161.711 60.6716C160.419 60.9666 159.161 61.2784 157.936 61.6013L157.101 65.3534L157.396 61.7516C104.338 76.2534 120.799 120.661 120.799 120.661C141.954 109.065 159.768 121.657 162.969 121.657C164.99 121.657 177.131 111.86 184.212 94.6856L180.905 95.3647L184.452 94.1066L184.446 94.101Z" fill="url(#paint8_linear_157_36)"/>
<g opacity="0.8">
<mask id="mask0_157_36" style="mask-type:luminance" maskUnits="userSpaceOnUse" x="118" y="57" width="72" height="65">
<path d="M184.446 94.101C184.891 92.9876 185.314 91.8464 185.715 90.6718L180.9 92.0134L186.01 89.7922C186.45 88.445 186.857 87.0589 187.218 85.6393L178.668 88.6788L187.608 84.0304C187.892 82.8002 188.142 81.5365 188.36 80.2505L177.014 85.3665L188.705 78.007C188.861 76.8547 188.989 75.68 189.083 74.4887L175.895 82.0264L189.256 71.7108C189.312 70.4304 189.323 69.1278 189.306 67.8084L174.225 78.6862L189.167 64.3959C189.106 63.4439 189.022 62.4753 188.922 61.5011L170.328 77.0161L188.154 57.4038C186.706 57.465 185.287 57.5374 183.9 57.6265L167.845 75.0621L179.709 57.9438C178.395 58.0607 177.109 58.1887 175.851 58.3279L166.782 71.2209L173.251 58.6452C171.648 58.8512 170.094 59.085 168.586 59.3355L163.308 69.4284L166.81 59.6417C165.446 59.8867 164.116 60.1483 162.824 60.4267L160.247 67.4633L161.711 60.6716C160.419 60.9666 159.161 61.2784 157.936 61.6013L157.101 65.3534L157.396 61.7516C104.338 76.2534 120.799 120.661 120.799 120.661C141.954 109.065 159.768 121.657 162.969 121.657C164.99 121.657 177.131 111.86 184.212 94.6856L180.905 95.3647L184.452 94.1066L184.446 94.101Z" fill="white"/>
</mask>
<g mask="url(#mask0_157_36)">
<path style="mix-blend-mode:multiply" d="M173.969 102.814C177.147 81.9821 162.835 62.5146 142.003 59.3359C121.166 56.1516 101.699 70.4642 98.52 91.3012C95.3413 112.133 109.654 131.6 130.485 134.779C151.317 137.958 170.784 123.645 173.969 102.814Z" fill="url(#paint9_linear_157_36)"/>
</g>
</g>
<path d="M84.4699 125.41C84.4699 125.41 82.2431 125.688 80.7122 126.106C80.7122 126.106 83.0782 127.358 81.8256 128.889C81.8256 128.889 78.903 128.75 76.1195 130.002C76.1195 130.002 78.7638 132.068 77.7896 133.125C77.7896 133.125 74.0319 131.812 71.8051 135.848C71.8051 135.848 74.1711 136.126 72.9185 137.379C72.9185 137.379 69.3 137.518 68.3258 140.023C68.3258 140.023 70.4134 141.693 68.3258 142.806C68.3258 142.806 65.4032 144.17 64.4289 146.063C64.4289 146.063 66.9341 146.982 65.8207 148.373C65.8207 148.373 61.9238 149.487 61.9238 151.435C61.9238 151.435 64.1506 150.322 63.0372 153.662C63.0372 153.662 60.3929 156.028 60.1146 158.255C60.1146 158.255 62.3413 157.837 62.2022 158.95C62.2022 158.95 59.0012 160.342 58.5837 164.796C58.5837 164.796 60.2537 164.657 59.5579 166.187C59.5579 166.187 57.3311 167.707 57.4703 171.47C57.4703 171.47 59.1404 169.656 58.862 171.47C58.862 171.47 57.0416 172.729 56.6909 177.182C56.6909 177.182 58.1661 176.347 58.1661 177.878C58.1661 177.878 55.4773 180.105 56.3346 183.723C56.3346 183.723 58.1661 183.445 57.6094 185.393C57.6094 185.393 55.3827 184.235 56.1676 189.847C59.9754 191.239 61.7401 189.429 61.7401 189.429C61.7401 189.429 60.9051 189.569 61.9238 189.385C62.9426 189.201 61.9238 190.498 61.9238 190.498C62.7143 190.498 65.6815 189.847 65.6815 189.847C66.0044 190.031 65.4978 190.498 65.4978 190.498C67.0287 190.454 69.0217 189.429 69.0217 189.429C69.5338 189.385 69.0217 190.125 69.0217 190.125C70.1796 190.264 76.0249 188.594 76.0249 188.594C76.8154 188.55 76.7653 189.613 76.7653 189.613C80.0609 189.101 81.7755 187.013 81.7755 187.013C82.9334 186.735 81.7755 187.943 81.7755 187.943C86.4629 188.177 87.7154 184.464 87.7154 184.464C88.6896 184.046 88.3166 186.089 88.3166 186.089C93.8836 185.766 94.1619 182.888 94.1619 182.888C95.0415 182.705 94.7186 184.742 94.7186 184.742C98.4318 183.723 99.406 179.776 99.406 179.776C100.425 179.175 100.146 181.541 100.146 181.541C103.999 180.428 104.088 177.783 104.088 177.783C105.301 175.879 106.498 178.062 106.498 178.062C108.541 176.765 109.098 173.887 109.098 173.887C110.584 172.127 111.52 175.462 111.52 175.462C114.871 173.608 113.741 169.155 113.741 169.155C115.038 167.668 115.99 170.084 115.99 170.084C118.612 167.117 118.378 164.89 118.378 164.89C120.048 163.22 120.605 166.004 120.605 166.004C121.902 164.15 120.605 160.253 120.605 160.253C122.091 158.026 123.388 159.513 123.388 159.513C124.875 157.659 124.129 154.319 124.129 154.319C125.231 152.587 126.044 154.319 126.044 154.319C127.218 151.908 126.723 149.492 126.044 148.568C125.365 147.638 127.469 148.568 127.469 148.568C128.209 147.638 127.413 145.15 127.413 145.15L127.458 142.433L127.469 141.704C127.469 141.704 127.853 138.954 127.469 138.364C127.085 137.774 126.545 137.234 126.545 137.234C126.634 136.532 127.608 136.532 127.608 136.532C127.363 133.933 124.307 127.403 124.307 127.403C124.307 127.403 117.448 134.656 100.748 131.684C84.0468 128.716 84.4643 125.421 84.4643 125.421L84.4699 125.41Z" fill="url(#paint10_linear_157_36)"/>
</g>
<defs>
<linearGradient id="paint0_linear_157_36" x1="110.228" y1="77.3057" x2="110.228" y2="107.645" gradientUnits="userSpaceOnUse">
<stop offset="0.02" stop-color="#D4EDF9"/>
<stop offset="0.51" stop-color="#2B82BC"/>
<stop offset="1" stop-color="#252964"/>
</linearGradient>
<linearGradient id="paint1_linear_157_36" x1="87.5926" y1="63.1766" x2="105.407" y2="109.009" gradientUnits="userSpaceOnUse">
<stop offset="0.02" stop-color="#D4EDF9"/>
<stop offset="0.51" stop-color="#2B82BC"/>
<stop offset="1" stop-color="#252964"/>
</linearGradient>
<linearGradient id="paint2_linear_157_36" x1="59.3851" y1="60.7105" x2="110.228" y2="124.92" gradientUnits="userSpaceOnUse">
<stop offset="0.02" stop-color="#D4EDF9"/>
<stop offset="0.51" stop-color="#2B82BC"/>
<stop offset="1" stop-color="#252964"/>
</linearGradient>
<linearGradient id="paint3_linear_157_36" x1="80.5614" y1="111.966" x2="109.882" y2="127.37" gradientUnits="userSpaceOnUse">
<stop offset="0.02" stop-color="#D4EDF9"/>
<stop offset="0.51" stop-color="#2B82BC"/>
<stop offset="1" stop-color="#252964"/>
</linearGradient>
<linearGradient id="paint4_linear_157_36" x1="133.704" y1="117.9" x2="187.703" y2="165.591" gradientUnits="userSpaceOnUse">
<stop offset="0.02" stop-color="#D4EDF9"/>
<stop offset="0.51" stop-color="#2B82BC"/>
<stop offset="1" stop-color="#252964"/>
</linearGradient>
<linearGradient id="paint5_linear_157_36" x1="133.798" y1="133.682" x2="151.429" y2="148.156" gradientUnits="userSpaceOnUse">
<stop offset="0.02" stop-color="#D4EDF9"/>
<stop offset="0.51" stop-color="#2B82BC"/>
<stop offset="1" stop-color="#252964"/>
</linearGradient>
<linearGradient id="paint6_linear_157_36" x1="146.496" y1="155.716" x2="178.227" y2="192.83" gradientUnits="userSpaceOnUse">
<stop offset="0.02" stop-color="#D4EDF9"/>
<stop offset="0.51" stop-color="#2B82BC"/>
<stop offset="1" stop-color="#252964"/>
</linearGradient>
<linearGradient id="paint7_linear_157_36" x1="135.557" y1="144.442" x2="136.671" y2="175.801" gradientUnits="userSpaceOnUse">
<stop offset="0.02" stop-color="#D4EDF9"/>
<stop offset="0.51" stop-color="#2B82BC"/>
<stop offset="1" stop-color="#252964"/>
</linearGradient>
<linearGradient id="paint8_linear_157_36" x1="135.568" y1="123.339" x2="175.478" y2="51.0798" gradientUnits="userSpaceOnUse">
<stop offset="0.15" stop-color="#FFDB00"/>
<stop offset="1" stop-color="#FCC500"/>
</linearGradient>
<linearGradient id="paint9_linear_157_36" x1="136.247" y1="119.425" x2="136.247" y2="67.8421" gradientUnits="userSpaceOnUse">
<stop offset="0.15" stop-color="#FFDB00"/>
<stop offset="1" stop-color="#F39500"/>
</linearGradient>
<linearGradient id="paint10_linear_157_36" x1="76.615" y1="128.076" x2="98.8437" y2="177.889" gradientUnits="userSpaceOnUse">
<stop stop-color="#A5C316"/>
<stop offset="0.49" stop-color="#67A12F"/>
<stop offset="1" stop-color="#1A8839"/>
</linearGradient>
<clipPath id="clip0_157_36">
<rect width="250" height="250" fill="white"/>
</clipPath>
</defs>
</svg>
