<svg width="42" height="45" viewBox="0 0 42 45" fill="none" xmlns="http://www.w3.org/2000/svg">
  <g clip-path="url(#clip0_3_169)">
    <path d="M1.93818 9.90948L14.3034 3.12109V41.883L1.94018 35.0927C0.74007 34.4346 0 33.207 0 31.8775V13.1209C0 11.7932 0.74007 10.5675 1.93818 9.90756V9.90948Z" fill="#85AF40"/>
    <path d="M40.0598 35.0965L22.9082 44.5133C21.7261 45.1618 20.2759 45.1618 19.0958 44.5133L1.94218 35.0965C1.60415 34.9118 1.30812 34.6771 1.0481 34.4116C2.54024 35.6622 4.49042 36.4204 6.62663 36.4204C7.98076 36.4204 9.26088 36.1144 10.397 35.5718L11.0851 35.1947L11.2411 35.11L37.5696 20.6674L37.6456 20.625C40.0838 19.3224 41.786 16.898 42 14.0791V31.8852C42 33.2147 41.2599 34.4404 40.0598 35.0985V35.0965Z" fill="#97C048"/>
    <path d="M40.0598 9.90359L22.9062 0.486816C21.7241 -0.161621 20.2739 -0.161621 19.0938 0.486816L1.94218 9.90359C1.60415 10.0883 1.30812 10.3231 1.0481 10.5886C2.54024 9.33789 4.49042 8.57977 6.62663 8.57977C7.98076 8.57977 9.26088 8.88571 10.397 9.42832L11.0851 9.80546L11.2411 9.89012L37.5696 24.3328L37.6456 24.3751C40.0838 25.6777 41.786 28.1022 42 30.921V13.115C42 11.7854 41.2599 10.5597 40.0598 9.90166V9.90359Z" fill="#A4CD3B"/>
  </g>
  <defs>
    <clipPath id="clip0_3_169">
      <rect width="42" height="45" fill="white"/>
    </clipPath>
  </defs>

</svg>